<svg id="visual" viewBox="0 0 900 600" width="900" height="600" xmlns="http://www.w3.org/2000/svg" xmlns:xlink="http://www.w3.org/1999/xlink" version="1.1"><rect x="0" y="0" width="900" height="600" fill="#ffffff"></rect><defs><linearGradient id="grad1_0" x1="33.3%" y1="0%" x2="100%" y2="100%"><stop offset="20%" stop-color="#1a192c" stop-opacity="1"></stop><stop offset="80%" stop-color="#1a192c" stop-opacity="1"></stop></linearGradient></defs><defs><linearGradient id="grad1_1" x1="33.3%" y1="0%" x2="100%" y2="100%"><stop offset="20%" stop-color="#1a192c" stop-opacity="1"></stop><stop offset="80%" stop-color="#424051" stop-opacity="1"></stop></linearGradient></defs><defs><linearGradient id="grad1_2" x1="33.3%" y1="0%" x2="100%" y2="100%"><stop offset="20%" stop-color="#6d6b79" stop-opacity="1"></stop><stop offset="80%" stop-color="#424051" stop-opacity="1"></stop></linearGradient></defs><defs><linearGradient id="grad1_3" x1="33.3%" y1="0%" x2="100%" y2="100%"><stop offset="20%" stop-color="#6d6b79" stop-opacity="1"></stop><stop offset="80%" stop-color="#9b9aa4" stop-opacity="1"></stop></linearGradient></defs><defs><linearGradient id="grad1_4" x1="33.3%" y1="0%" x2="100%" y2="100%"><stop offset="20%" stop-color="#cccbd0" stop-opacity="1"></stop><stop offset="80%" stop-color="#9b9aa4" stop-opacity="1"></stop></linearGradient></defs><defs><linearGradient id="grad1_5" x1="33.3%" y1="0%" x2="100%" y2="100%"><stop offset="20%" stop-color="#cccbd0" stop-opacity="1"></stop><stop offset="80%" stop-color="#ffffff" stop-opacity="1"></stop></linearGradient></defs><defs><linearGradient id="grad2_0" x1="0%" y1="0%" x2="66.7%" y2="100%"><stop offset="20%" stop-color="#1a192c" stop-opacity="1"></stop><stop offset="80%" stop-color="#1a192c" stop-opacity="1"></stop></linearGradient></defs><defs><linearGradient id="grad2_1" x1="0%" y1="0%" x2="66.7%" y2="100%"><stop offset="20%" stop-color="#424051" stop-opacity="1"></stop><stop offset="80%" stop-color="#1a192c" stop-opacity="1"></stop></linearGradient></defs><defs><linearGradient id="grad2_2" x1="0%" y1="0%" x2="66.7%" y2="100%"><stop offset="20%" stop-color="#424051" stop-opacity="1"></stop><stop offset="80%" stop-color="#6d6b79" stop-opacity="1"></stop></linearGradient></defs><defs><linearGradient id="grad2_3" x1="0%" y1="0%" x2="66.7%" y2="100%"><stop offset="20%" stop-color="#9b9aa4" stop-opacity="1"></stop><stop offset="80%" stop-color="#6d6b79" stop-opacity="1"></stop></linearGradient></defs><defs><linearGradient id="grad2_4" x1="0%" y1="0%" x2="66.7%" y2="100%"><stop offset="20%" stop-color="#9b9aa4" stop-opacity="1"></stop><stop offset="80%" stop-color="#cccbd0" stop-opacity="1"></stop></linearGradient></defs><defs><linearGradient id="grad2_5" x1="0%" y1="0%" x2="66.7%" y2="100%"><stop offset="20%" stop-color="#ffffff" stop-opacity="1"></stop><stop offset="80%" stop-color="#cccbd0" stop-opacity="1"></stop></linearGradient></defs><g transform="translate(900, 0)"><path d="M0 297.5C-31.5 295.2 -63 292.9 -91.9 282.9C-120.8 272.9 -147.1 255 -171 235.4C-195 215.8 -216.8 194.4 -233.8 169.9C-250.8 145.3 -263.1 117.5 -273 88.7C-282.8 59.8 -290.1 29.9 -297.5 0L0 0Z" fill="#e5e5e8"></path><path d="M0 247.9C-26.3 246 -52.5 244.1 -76.6 235.7C-100.7 227.4 -122.5 212.5 -142.5 196.2C-162.5 179.9 -180.7 162 -194.8 141.6C-209 121.1 -219.3 97.9 -227.5 73.9C-235.6 49.9 -241.8 24.9 -247.9 0L0 0Z" fill="#b3b2ba"></path><path d="M0 198.3C-21 196.8 -42 195.3 -61.3 188.6C-80.5 181.9 -98 170 -114 156.9C-130 143.9 -144.5 129.6 -155.9 113.2C-167.2 96.9 -175.4 78.4 -182 59.1C-188.5 39.9 -193.4 19.9 -198.3 0L0 0Z" fill="#84828e"></path><path d="M0 148.7C-15.8 147.6 -31.5 146.5 -46 141.4C-60.4 136.4 -73.5 127.5 -85.5 117.7C-97.5 107.9 -108.4 97.2 -116.9 84.9C-125.4 72.6 -131.6 58.8 -136.5 44.3C-141.4 29.9 -145.1 15 -148.7 0L0 0Z" fill="#575565"></path><path d="M0 99.2C-10.5 98.4 -21 97.6 -30.6 94.3C-40.3 91 -49 85 -57 78.5C-65 71.9 -72.3 64.8 -77.9 56.6C-83.6 48.4 -87.7 39.2 -91 29.6C-94.3 19.9 -96.7 10 -99.2 0L0 0Z" fill="#2d2c3e"></path><path d="M0 49.6C-5.3 49.2 -10.5 48.8 -15.3 47.1C-20.1 45.5 -24.5 42.5 -28.5 39.2C-32.5 36 -36.1 32.4 -39 28.3C-41.8 24.2 -43.9 19.6 -45.5 14.8C-47.1 10 -48.4 5 -49.6 0L0 0Z" fill="#1a192c"></path></g><g transform="translate(0, 600)"><path d="M0 -297.5C32 -295 64 -292.6 91.2 -280.6C118.4 -268.5 140.7 -246.8 166.3 -229C191.9 -211.1 220.7 -197.3 240.6 -174.8C260.6 -152.4 271.6 -121.4 279.6 -90.9C287.6 -60.3 292.5 -30.1 297.5 0L0 0Z" fill="#e5e5e8"></path><path d="M0 -247.9C26.7 -245.9 53.3 -243.9 76 -233.8C98.6 -223.7 117.3 -205.6 138.6 -190.8C159.9 -176 183.9 -164.4 200.5 -145.7C217.1 -127 226.4 -101.2 233 -75.7C239.7 -50.2 243.8 -25.1 247.9 0L0 0Z" fill="#b3b2ba"></path><path d="M0 -198.3C21.3 -196.7 42.6 -195.1 60.8 -187C78.9 -179 93.8 -164.5 110.9 -152.6C128 -140.8 147.2 -131.5 160.4 -116.6C173.7 -101.6 181.1 -80.9 186.4 -60.6C191.7 -40.2 195 -20.1 198.3 0L0 0Z" fill="#84828e"></path><path d="M0 -148.7C16 -147.5 32 -146.3 45.6 -140.3C59.2 -134.2 70.4 -123.4 83.2 -114.5C96 -105.6 110.4 -98.6 120.3 -87.4C130.3 -76.2 135.8 -60.7 139.8 -45.4C143.8 -30.1 146.3 -15.1 148.7 0L0 0Z" fill="#575565"></path><path d="M0 -99.2C10.7 -98.3 21.3 -97.5 30.4 -93.5C39.5 -89.5 46.9 -82.3 55.4 -76.3C64 -70.4 73.6 -65.8 80.2 -58.3C86.9 -50.8 90.5 -40.5 93.2 -30.3C95.9 -20.1 97.5 -10 99.2 0L0 0Z" fill="#2d2c3e"></path><path d="M0 -49.6C5.3 -49.2 10.7 -48.8 15.2 -46.8C19.7 -44.7 23.5 -41.1 27.7 -38.2C32 -35.2 36.8 -32.9 40.1 -29.1C43.4 -25.4 45.3 -20.2 46.6 -15.1C47.9 -10 48.8 -5 49.6 0L0 0Z" fill="#1a192c"></path></g></svg>