<?xml version="1.0" encoding="UTF-8" standalone="no"?>
<!-- Created with Inkscape (http://www.inkscape.org/) -->

<svg
   width="200"
   height="125"
   viewBox="0 0 52.916667 33.072916"
   version="1.1"
   id="svg114"
   xml:space="preserve"
   inkscape:version="1.2.2 (732a01da63, 2022-12-09)"
   sodipodi:docname="caminhao.svg"
   xmlns:inkscape="http://www.inkscape.org/namespaces/inkscape"
   xmlns:sodipodi="http://sodipodi.sourceforge.net/DTD/sodipodi-0.dtd"
   xmlns:xlink="http://www.w3.org/1999/xlink"
   xmlns="http://www.w3.org/2000/svg"
   xmlns:svg="http://www.w3.org/2000/svg"><sodipodi:namedview
     id="namedview116"
     pagecolor="#ffffff"
     bordercolor="#000000"
     borderopacity="0.25"
     inkscape:showpageshadow="2"
     inkscape:pageopacity="0.0"
     inkscape:pagecheckerboard="0"
     inkscape:deskcolor="#d1d1d1"
     inkscape:document-units="px"
     showgrid="false"
     inkscape:zoom="2.9540685"
     inkscape:cx="110.35628"
     inkscape:cy="73.796529"
     inkscape:window-width="2560"
     inkscape:window-height="1009"
     inkscape:window-x="-8"
     inkscape:window-y="-8"
     inkscape:window-maximized="1"
     inkscape:current-layer="layer2" /><defs
     id="defs111"><color-profile
       name="Agfa-:-Swop-Standard"
       xlink:href="file:///C:/WINDOWS/system32/spool/drivers/color/RSWOP.icm"
       id="color-profile889" /></defs><g
     inkscape:groupmode="layer"
     id="layer2"
     inkscape:label="Camada 2"><path
       id="path328"
       style="fill:#2ecc71;stroke-width:0.264583"
       d="M 51.410815 3.0452921 L 15.584578 3.1346924 L 51.410815 3.0452921 z M 15.853296 3.3140096 L 15.872933 8.4361775 L 6.3701538 8.6201456 C 6.3701538 8.6201456 4.0479485 10.568977 3.1610473 12.091768 C 2.465623 13.285798 1.4329875 16.390731 1.4329875 16.390731 C 1.4329875 16.390731 1.5227378 23.824261 1.6123047 24.451221 C 1.6123047 24.451221 0.98256056 24.445521 0.75034179 24.719938 C 0.28590426 25.268818 0.71675211 26.69036 0.71675211 26.69036 L 7.4119506 26.65367 A 3.9266179 3.9266179 0 0 0 11.336776 30.526302 A 3.9266179 3.9266179 0 0 0 15.262634 26.610779 L 15.942179 26.607161 L 15.942696 26.69036 L 39.534537 26.868127 A 3.9266179 3.9266179 0 0 0 43.445927 30.46274 A 3.9266179 3.9266179 0 0 0 47.351115 26.927038 L 51.589616 26.959078 L 51.679533 3.49281 L 15.853296 3.3140096 z M 12.096419 9.9430623 L 11.906767 16.846517 L 3.5465535 16.909562 C 3.9314531 14.526101 4.6293304 12.062188 7.4734456 10.006624 L 12.096419 9.9430623 z " /></g></svg>
