<?xml version="1.0" encoding="UTF-8" standalone="no"?>
<!-- Created with Inkscape (http://www.inkscape.org/) -->

<svg
   width="200"
   height="175"
   viewBox="0 0 52.916667 46.302082"
   version="1.1"
   id="svg114"
   xml:space="preserve"
   inkscape:version="1.2.2 (732a01da63, 2022-12-09)"
   sodipodi:docname="garra-tracadora.svg"
   xmlns:inkscape="http://www.inkscape.org/namespaces/inkscape"
   xmlns:sodipodi="http://sodipodi.sourceforge.net/DTD/sodipodi-0.dtd"
   xmlns:xlink="http://www.w3.org/1999/xlink"
   xmlns="http://www.w3.org/2000/svg"
   xmlns:svg="http://www.w3.org/2000/svg"><sodipodi:namedview
     id="namedview116"
     pagecolor="#ffffff"
     bordercolor="#000000"
     borderopacity="0.25"
     inkscape:showpageshadow="2"
     inkscape:pageopacity="0.0"
     inkscape:pagecheckerboard="0"
     inkscape:deskcolor="#d1d1d1"
     inkscape:document-units="px"
     showgrid="false"
     inkscape:zoom="1.4770342"
     inkscape:cx="69.734335"
     inkscape:cy="37.236781"
     inkscape:window-width="2560"
     inkscape:window-height="1009"
     inkscape:window-x="-8"
     inkscape:window-y="-8"
     inkscape:window-maximized="1"
     inkscape:current-layer="layer3" /><defs
     id="defs111"><color-profile
       name="Agfa-:-Swop-Standard"
       xlink:href="file:///C:/WINDOWS/system32/spool/drivers/color/RSWOP.icm"
       id="color-profile1051" /></defs><g
     inkscape:groupmode="layer"
     id="layer3"
     inkscape:label="Camada 3"><path
       id="path915"
       style="fill:#2ecc71;stroke-width:0.264583"
       d="M 10.17819 1.3518555 C 9.11954 1.3598696 8.2319872 1.7094572 7.4341715 2.2391398 L 8.14989 18.976102 A 7.8370023 6.9861279 0 0 0 1.7466634 25.839766 A 7.8370023 6.9861279 0 0 0 4.6038533 31.229618 A 6.1576447 5.4891005 0 0 1 3.4483683 28.033947 A 6.1576447 5.4891005 0 0 1 8.1292195 22.706107 A 1.746532 0.76130879 0 0 0 9.5389525 23.018233 A 1.746532 0.76130879 0 0 0 10.979691 22.686987 A 6.1576447 5.4891005 0 0 1 15.763379 28.033947 A 6.1576447 5.4891005 0 0 1 14.685925 31.136084 A 7.8370023 6.9861279 0 0 0 17.420642 25.839766 A 7.8370023 6.9861279 0 0 0 10.871171 18.948714 L 13.434839 2.2391398 C 12.179461 1.6036613 11.112293 1.344784 10.17819 1.3518555 z M 14.778426 2.7765747 L 13.345438 7.165454 L 25.167973 13.255521 C 27.089418 12.028891 27.6804 10.327049 27.944547 8.5085245 L 14.778426 2.7765747 z M 29.377535 10.120829 C 28.37433 11.638138 27.2902 13.064099 25.34729 13.524239 L 29.706197 20.062858 L 25.705407 20.062858 L 25.616007 34.975643 L 45.633907 34.975643 L 45.588948 34.930684 L 48.992358 34.930684 L 48.992358 27.407112 L 47.22244 26.384953 L 38.692211 26.384953 L 38.692211 24.093103 L 29.377535 10.120829 z M 27.159582 22.47408 L 30.116508 22.505603 C 31.160727 24.317322 31.241832 24.544612 32.365466 26.307438 L 27.09602 30.677714 L 27.159582 22.47408 z M 28.033947 36.990507 C 22.666828 38.140414 20.961643 39.551861 18.808671 40.931351 C 18.215537 41.923704 18.60069 42.834612 19.436023 43.707926 L 48.454923 43.707926 C 50.741842 40.754128 49.954001 38.76118 48.454923 36.990507 L 28.033947 36.990507 z " /></g></svg>
