<?xml version="1.0" encoding="UTF-8" standalone="no"?>
<!-- Created with Inkscape (http://www.inkscape.org/) -->

<svg
   width="200"
   height="175"
   viewBox="0 0 52.916667 46.302082"
   version="1.1"
   id="svg114"
   xml:space="preserve"
   inkscape:version="1.2.2 (732a01da63, 2022-12-09)"
   sodipodi:docname="Harvester.svg"
   xmlns:inkscape="http://www.inkscape.org/namespaces/inkscape"
   xmlns:sodipodi="http://sodipodi.sourceforge.net/DTD/sodipodi-0.dtd"
   xmlns:xlink="http://www.w3.org/1999/xlink"
   xmlns="http://www.w3.org/2000/svg"
   xmlns:svg="http://www.w3.org/2000/svg"><sodipodi:namedview
     id="namedview116"
     pagecolor="#ffffff"
     bordercolor="#000000"
     borderopacity="0.25"
     inkscape:showpageshadow="2"
     inkscape:pageopacity="0.0"
     inkscape:pagecheckerboard="0"
     inkscape:deskcolor="#d1d1d1"
     inkscape:document-units="px"
     showgrid="false"
     inkscape:zoom="0.73851712"
     inkscape:cx="-72.442465"
     inkscape:cy="100.87782"
     inkscape:window-width="1387"
     inkscape:window-height="1032"
     inkscape:window-x="156"
     inkscape:window-y="0"
     inkscape:window-maximized="0"
     inkscape:current-layer="svg114" /><defs
     id="defs111"><color-profile
       name="Agfa-:-Swop-Standard"
       xlink:href="file:///C:/WINDOWS/system32/spool/drivers/color/RSWOP.icm"
       id="color-profile1235" /></defs><g
     inkscape:groupmode="layer"
     id="layer6"
     inkscape:label="Camada 5"
     style="display:inline"><path
       id="path1087"
       style="fill:#2ecc71;stroke-width:0.276532"
       d="M 5.9334879,2.1497396 5.8218668,6.4037434 h 0.00362 c -0.00118,0.011738 -0.00362,0.023079 -0.00362,0.03514 V 30.014705 c 0,0.172925 0.1251285,0.314315 0.2899048,0.342098 v 1.26969 L 5.4782185,30.938163 4.3966308,30.482377 C 4.3768872,30.398464 4.3017374,30.336132 4.2116292,30.336132 H 1.3931966 c -0.1052585,0 -0.1896525,0.08491 -0.1896525,0.19017 v 0.949813 c 0,0.105257 0.084394,0.190169 0.1896525,0.190169 h 1.9916097 l 1.2169799,1.361674 H 2.0897949 c -0.1052585,0 -0.1896525,0.08491 -0.1896525,0.190169 v 0.09457 c 0,0.105259 0.084394,0.190169 0.1896525,0.190169 h 2.5967407 v 0.696599 H 3.1352091 c -0.1929738,0 -0.3488159,0.155325 -0.3488159,0.348299 v 1.709973 c 0,0.192974 0.1558421,0.348299 0.3488159,0.348299 H 4.6865356 V 37.27111 H 2.3435262 c -0.1052585,0 -0.1901693,0.08491 -0.1901693,0.190169 v 0.03152 c 0,0.105259 0.084911,0.19017 0.1901693,0.19017 H 4.5971354 L 3.3786051,38.981083 H 1.361674 c -0.1052585,0 -0.1901693,0.08491 -0.1901693,0.190169 v 0.696598 c 0,0.105259 0.084911,0.19017 0.1901693,0.19017 h 2.9135172 c 0.090282,0 0.1654343,-0.0626 0.1850016,-0.146761 l 2.8546061,-2.133204 v -1.7663 c 0.054584,0.03547 0.1199509,0.05633 0.1901693,0.05633 H 7.88479 c 0.1929738,0 0.3482991,-0.155325 0.3482991,-0.348299 v -1.52032 c 0,-0.169416 -0.1197591,-0.309821 -0.2795695,-0.341582 0.016911,-0.04102 0.026355,-0.08606 0.026355,-0.133325 v -3.361552 h 0.00155 c 0.1929736,0 0.3482991,-0.155325 0.3482991,-0.348299 V 8.2387735 L 21.970752,26.840739 c 0.07994,0.109008 0.205271,0.165045 0.331246,0.16278 v 4.662765 h -0.86403 c -0.192974,0 -0.348299,0.155325 -0.348299,0.348299 v 2.583305 c -0.07671,0.06379 -0.126608,0.158627 -0.126608,0.26665 v 1.53479 c -0.308179,-0.08309 -0.625978,-0.125136 -0.945162,-0.125057 -2.003172,1.35e-4 -3.627034,1.623997 -3.627168,3.627169 -1.51e-4,2.003374 1.623794,3.62755 3.627168,3.627685 2.003576,1.51e-4 3.627837,-1.624109 3.627686,-3.627685 -1.49e-4,-0.148916 -0.0095,-0.297681 -0.02791,-0.445451 h 0.307991 c -0.03678,0.206239 -0.05563,0.415276 -0.05633,0.624768 1.34e-4,2.003172 1.623997,3.627035 3.627169,3.627169 2.003374,1.51e-4 3.627551,-1.623795 3.627685,-3.627169 -1.88e-4,-0.209447 -0.01852,-0.418484 -0.05478,-0.624768 h 5.966561 c -1.86e-4,0.0067 -3.59e-4,0.01344 -5.17e-4,0.02015 -1e-5,2.658797 2.155379,4.814186 4.814176,4.814176 2.658798,1e-5 4.814187,-2.155379 4.814177,-4.814176 v -5.17e-4 -5.17e-4 -5.16e-4 -5.17e-4 -5.17e-4 -5.17e-4 -5.16e-4 -5.17e-4 -5.17e-4 -5.17e-4 -5.16e-4 -5.17e-4 -5.17e-4 -5.17e-4 -5.17e-4 -5.16e-4 -5.17e-4 -5.17e-4 -5.17e-4 -5.16e-4 -5.17e-4 -5.17e-4 -5.17e-4 -5.16e-4 -5.17e-4 -5.17e-4 -5.17e-4 -5.16e-4 -5.17e-4 -5.17e-4 -5.17e-4 -5.17e-4 -5.16e-4 -5.17e-4 -5.17e-4 -5.17e-4 -5.16e-4 -5.17e-4 -5.17e-4 h 4.794022 c 0.192974,0 0.3483,-0.155325 0.3483,-0.348299 v -4.243152 c 0,-0.02659 -0.0037,-0.05214 -0.0093,-0.077 0,0 0.129179,-2.019959 -0.569993,-2.58304 -3.29583,-2.654307 -12.349623,-5.414915 -12.349623,-5.414915 v 0.01292 c -0.03278,-0.04092 -0.07817,-0.0031 -0.128847,0.02239 -0.149383,0.07522 -0.235867,0.140275 -0.235296,0.235295 l 0.04478,7.456059 h -5.288566 l 2.450496,-3.229777 v -7.346838 c -6.352359,-0.92589 -6.716147,0.305643 -8.613428,5.826517 l 2.317172,4.750098 h -3.266984 v -2.501656 c 0,-0.192974 -0.155327,-0.348299 -0.348299,-0.348299 h -0.550871 v -5.655469 c 0,-0.218955 -0.175853,-0.394808 -0.394808,-0.394808 h -0.543119 c 0.07989,-0.130481 0.07784,-0.300824 -0.01912,-0.433048 L 8.4816527,3.6116658 C 8.4552571,3.5756707 8.4227992,3.5476432 8.3881184,3.5232991 L 7.3669921,2.1719604 Z M 32.674646,25.185688 c 0.505442,-0.0034 0.886575,-0.04882 1.618351,0.03911 l -0.03204,4.619377 -4.184692,0.08888 c -0.636212,0.04248 -0.839866,-0.124821 -0.895658,-0.753574 1.248526,-3.41952 0.764651,-3.975653 3.494039,-3.99379 z"
       sodipodi:nodetypes="cccssccccsssssccssssccssssccssssccssssscccsssscscssccccsscsccccccccccccccscccccccccccccccccccccccccccccccccccccccssscsccsscccccccsscssccccccccccccc" /></g></svg>
