<?xml version="1.0" encoding="utf-8"?>
<!-- Generator: Adobe Illustrator 18.0.0, SVG Export Plug-In . SVG Version: 6.00 Build 0)  -->
<!DOCTYPE svg PUBLIC "-//W3C//DTD SVG 1.1//EN" "http://www.w3.org/Graphics/SVG/1.1/DTD/svg11.dtd">
<svg version="1.1" id="Camada_1" xmlns="http://www.w3.org/2000/svg" xmlns:xlink="http://www.w3.org/1999/xlink" x="0px" y="0px"
	 viewBox="0 0 283.5 425.2" enable-background="new 0 0 283.5 425.2" xml:space="preserve">
<g>
	<path fill="none" d="M334.8,213.4c0,62.9,0,125.7,0.1,188.6c0,2.5-0.5,3.1-3.1,3.1c-126-0.1-252-0.1-378,0c-2.9,0-3.2-0.9-3.2-3.4
		c0.1-125.9,0.1-251.7,0-377.6c0-2.7,0.5-3.3,3.2-3.3c125.9,0.1,251.7,0.1,377.6,0c3,0,3.4,0.9,3.4,3.5
		C334.8,87.4,334.8,150.4,334.8,213.4z M143.1,45c-5.6,0-11.3,0-16.9,0c-49.1,0-98.3,0-147.4-0.1c-3.6,0-4.3,1.1-4.1,4.3
		c0.3,5.2,0.3,10.5,0,15.7c-0.3,3.6,1.1,4.1,4.3,4.1c45.3-0.1,90.5,0,135.8-0.2c3.6,0,4.3,1.1,4.1,4.3c-0.3,3.9,0,7.7-0.1,11.6
		c0,2.6,0.8,5.9-0.5,7.6c-1.2,1.7-4.6,0.5-7.1,0.5c-2.9,0.1-4.4,1.4-4.4,4.3c0,2.9,0,5.8,0,8.6c0,4,1.1,5.1,5.1,5.1
		c20.6,0,41.3,0,61.9,0c3.5,0,5.2-1.4,5-4.9c-0.1-1.1,0-2.2,0-3.4c-0.1-8.5,1.6-10.3-9.4-9.7c-2.2,0.1-2.6-0.7-2.6-2.7
		c0.1-5.7,0.3-11.5-0.1-17.2c-0.2-3.6,1.1-4.1,4.3-4.1c45.3,0.1,90.5,0,135.8,0.2c3.6,0,4.3-1.1,4.1-4.3c-0.3-5.4-0.3-10.8,0-16.1
		c0.2-3.3-1-3.7-3.9-3.7C252.3,45,197.7,45,143.1,45z M81.3,189c-9.6,0-18.7-0.2-27.8,0c-14.1,0.4-25,6.7-31.5,19.3
		C11,229.6,0.5,251-10.2,272.4c-4.1,8.2-4.2,16.6-0.1,24.9c13.2,26.5,26.5,53,39.7,79.6c1.5,3,3.5,3.6,6.4,2.3
		c5.8-2.6,11.6-5.1,17.4-7.7c5.2-2.3,5.4-2.7,3.6-8.2c-8.1-25-16.2-50-24.4-75c-0.8-2.4-0.5-4.1,1-6.1c10-14,19.9-28.1,29.6-42.3
		c1.6-2.3,3.2-3,5.8-2.9c4,0.2,8.1,0.1,12.5,0.1C75.3,220.9,75.3,205.1,81.3,189z M204.6,237c4.2,0,8.3,0.1,12.4-0.1
		c2.5-0.1,4,0.7,5.5,2.8c9.7,14.1,19.5,28.1,29.4,42c1.7,2.4,2,4.3,1.1,7.1c-8.2,24.9-16.3,50-24.4,74.9c-1.5,4.6-1.1,5.5,3.4,7.4
		c6,2.7,12.1,5.3,18.1,8c2.8,1.2,4.7,0.6,6.1-2.2c13.3-26.6,26.6-53.2,39.8-79.9c4-8.1,3.9-16.4-0.1-24.5
		c-10.7-21.5-21.3-43.1-32.3-64.5c-5.3-10.4-14.1-16.8-25.7-18.5c-11-1.6-22.1-0.3-33.3-0.7C210.2,210.7,210.2,211.2,204.6,237z
		 M190.8,213c0-26.4-21.5-47.9-47.8-48c-26.6-0.1-48.2,21.4-48.2,48c0,26.4,21.5,47.9,47.8,48C169.2,261.1,190.8,239.5,190.8,213z
		 M166.8,151.4c0-7,0-13.7,0-20.5c0-1.4-0.3-2-1.9-2c-14.7,0-29.5,0-44.2,0c-1.4,0-2,0.3-2,1.8c0.1,6.8,0,13.6,0,20.6
		C138.3,144.9,150.9,146.1,166.8,151.4z"/>
	<path fill="#003184" d="M143.1,45c54.6,0,109.3,0,163.9-0.1c3,0,4.1,0.4,3.9,3.7c-0.3,5.4-0.3,10.8,0,16.1c0.2,3.2-0.6,4.3-4.1,4.3
		c-45.3-0.1-90.5-0.1-135.8-0.2c-3.2,0-4.5,0.5-4.3,4.1c0.4,5.7,0.2,11.5,0.1,17.2c0,2,0.4,2.9,2.6,2.7c11-0.6,9.4,1.2,9.4,9.7
		c0,1.1,0,2.3,0,3.4c0.2,3.5-1.5,4.9-5,4.9c-20.6-0.1-41.3,0-61.9,0c-4,0-5.1-1.1-5.1-5.1c0-2.9,0-5.8,0-8.6c0-3,1.5-4.3,4.4-4.3
		c2.5-0.1,5.9,1.2,7.1-0.5c1.3-1.8,0.5-5,0.5-7.6c0-3.9-0.2-7.8,0.1-11.6c0.2-3.2-0.5-4.3-4.1-4.3C69.5,69,24.2,68.9-21,69
		c-3.2,0-4.6-0.5-4.3-4.1c0.4-5.2,0.3-10.5,0-15.7c-0.2-3.3,0.6-4.3,4.1-4.3C27.9,45,77.1,45,126.2,45C131.8,45,137.4,45,143.1,45z"
		/>
	<path fill="#003184" d="M81.3,189c-6.1,16.2-6,31.9,0,48c-4.4,0-8.4,0.2-12.5-0.1c-2.6-0.1-4.2,0.6-5.8,2.9
		c-9.7,14.2-19.7,28.3-29.6,42.3c-1.4,2-1.7,3.7-1,6.1c8.2,25,16.3,50,24.4,75c1.8,5.4,1.6,5.9-3.6,8.2c-5.8,2.6-11.6,5.1-17.4,7.7
		c-2.9,1.3-4.9,0.7-6.4-2.3c-13.2-26.5-26.5-53-39.7-79.6c-4.1-8.2-4-16.7,0.1-24.9C0.5,251,11,229.6,22,208.3
		c6.5-12.6,17.4-18.9,31.5-19.3C62.6,188.8,71.8,189,81.3,189z"/>
	<path fill="#003184" d="M204.6,237c5.7-25.7,5.7-26.3-0.1-48.1c11.2,0.4,22.3-0.9,33.3,0.7c11.6,1.7,20.4,8.1,25.7,18.5
		c11,21.4,21.6,42.9,32.3,64.5c4,8.1,4.1,16.4,0.1,24.5c-13.2,26.7-26.6,53.3-39.8,79.9c-1.4,2.8-3.3,3.5-6.1,2.2
		c-6-2.7-12.1-5.4-18.1-8c-4.5-2-4.9-2.8-3.4-7.4c8.1-25,16.2-50,24.4-74.9c0.9-2.8,0.6-4.8-1.1-7.1c-9.9-13.9-19.7-27.9-29.4-42
		c-1.4-2.1-3-2.9-5.5-2.8C212.8,237.1,208.7,237,204.6,237z"/>
	<path fill="#003184" d="M190.8,213c0,26.5-21.6,48.1-48.2,48c-26.3-0.1-47.8-21.6-47.8-48c0-26.6,21.6-48.1,48.2-48
		C169.3,165,190.8,186.6,190.8,213z M142.9,231c9.8-0.1,17.8-8.2,17.8-18c0-10-8.2-18.1-18.2-18c-9.8,0.1-17.8,8.2-17.8,18
		C124.8,222.9,133,231,142.9,231z"/>
	<path fill="#003184" d="M166.8,151.4c-15.8-5.2-28.5-6.5-48,0c0-6.9,0-13.7,0-20.6c0-1.6,0.6-1.8,2-1.8c14.7,0,29.5,0,44.2,0
		c1.5,0,1.9,0.6,1.9,2C166.8,137.6,166.8,144.4,166.8,151.4z"/>
	<path fill="#FCFCFC" d="M142.9,231c-10,0.1-18.2-8-18.2-18c0-9.8,8-17.9,17.8-18c10-0.1,18.2,8,18.2,18
		C160.8,222.8,152.7,230.9,142.9,231z"/>
</g>
</svg>
