<?xml version="1.0" encoding="utf-8"?>
<!-- Generator: Adobe Illustrator 18.0.0, SVG Export Plug-In . SVG Version: 6.00 Build 0)  -->
<!DOCTYPE svg PUBLIC "-//W3C//DTD SVG 1.1//EN" "http://www.w3.org/Graphics/SVG/1.1/DTD/svg11.dtd">
<svg version="1.1" id="Camada_1" xmlns="http://www.w3.org/2000/svg" xmlns:xlink="http://www.w3.org/1999/xlink" x="0px" y="0px"
	 viewBox="0 0 283.5 425.2" enable-background="new 0 0 283.5 425.2" xml:space="preserve">
<g>
	<path fill="none" d="M334.7,212.9c0,62.9,0,125.7,0.1,188.6c0,2.7-0.4,3.5-3.4,3.5c-125.8-0.1-251.7-0.1-377.5,0
		c-2.8,0-3.2-0.7-3.2-3.3c0.1-125.8,0.1-251.7,0-377.5c0-2.5,0.3-3.3,3.2-3.3c126,0.1,251.9,0.1,377.9,0c2.6,0,3,0.6,3,3.1
		C334.7,87,334.7,149.9,334.7,212.9z M47.9,268.6c0.4-0.5,0.8-0.8,1-1.2c8.8-13.5,22.1-19.6,36.7-16.8c14.4,2.8,24.9,14,27.6,29.8
		c0.4,2.3,1.3,2.4,3.1,2.4c15.1,0,30.2-0.1,45.4,0c2.6,0,3.1-0.6,3.2-3.2c0.4-25.1,22.8-43.1,47.3-38.1c3.3,0.7,6.6,2,10,3.1
		c0-8.5-0.2-16.7,0.1-25c0.1-3.2-0.6-4.1-4-4.1c-47,0.1-94,0.1-141,0.1c-15.9,0-31.7,0.1-47.6-0.1c-2.5,0-3.2,0.6-3.2,3.1
		c0.2,7.2,0.1,14.5,0,21.7c0,1.4,0.3,2.6,1.2,3.7C34.5,252.2,41.2,260.3,47.9,268.6z M98.7,209c19.5,0,39-0.1,58.4,0.1
		c2.7,0,3.3-0.8,3.3-3.3c-0.1-18.1-0.1-36.2,0-54.3c0-2.3-0.5-3.2-3-3.2c-34.2,0.1-68.4,0-102.6,0.1c-10.3,0-17.6,7.4-17.7,17.7
		c-0.1,13.2,0.1,26.5-0.1,39.7c0,2.6,0.7,3.3,3.3,3.3C59.7,209,79.2,209,98.7,209z M208.8,133.1c-12.7,0-25.5,0-38.2,0
		c-1.9,0-3.3-0.1-3.2,2.6c0.2,4.2-0.4,8.5-0.4,12.7c-0.2,19.1-0.1,38.2-0.2,57.4c0,2.6,0.6,3.4,3.3,3.4c16.7-0.1,33.5-0.1,50.2,0
		c2.5,0,3.4-0.8,4.2-3.1c8-23.2,16-46.4,24.2-69.5c1-2.8,0.8-3.6-2.4-3.5C233.8,133.2,221.3,133.1,208.8,133.1z M236.6,279.7
		c0-17.9-14.5-32.4-32.3-32.4c-18.3,0-33,14.6-32.9,32.6c0.1,17.7,14.7,32.4,32.4,32.6C221.8,312.6,236.6,297.9,236.6,279.7z
		 M-15.9,162.4c4.4,0,8.5-0.1,12.7,0c2.1,0.1,3.4-0.5,4.6-2.4c3-4.8,6.3-9.3,9.3-14.1c1.9-3.1,4.3-4.4,8-4.3
		c26.6,0.1,53.2,0.1,79.8,0c3.4,0,8,1.5,10-0.7c1.7-1.9,0.3-6.4,0.6-9.7c0.3-3-0.8-3.7-3.7-3.7c-30.2,0.1-60.5,0-90.7,0.1
		c-4.6,0-8.3,1.5-11,5.6c-5.7,8.6-11.7,17.1-17.6,25.6C-14.7,159.8-15.7,160.7-15.9,162.4z M51.1,284.5c0.1,15.4,12.4,27.9,27.8,28
		c15.4,0.1,28-12.6,28-28.2c-0.1-15.4-12.6-27.8-28-27.8C63.5,256.5,51,269.1,51.1,284.5z M215.1,126.5c14.6,0,29.2-0.1,43.8,0.1
		c2.5,0,3.7-0.5,3.4-3.2c-0.2-2.3-0.3-4.8,0-7.1c0.3-3.1-0.6-3.9-3.8-3.9c-26.7,0.1-53.4,0.1-80.1,0.1c-3.6,0-8.5-1.6-10.4,0.6
		c-1.8,2.1-0.4,6.9-0.7,10.5c-0.2,2.6,0.8,3,3.2,3C185.4,126.5,200.3,126.5,215.1,126.5z M138.1,141.7c6.7,0,13.5-0.1,20.2,0
		c1.9,0,2.6-0.5,2.5-2.5c-0.2-3,0-6-0.1-9c-0.1-10.3-7.3-17.7-17.6-17.8c-8.2-0.1-16.5,0-24.7-0.1c-2.2,0-3,0.4-3,2.8
		c0.2,7.9,0.2,15.7,0,23.6c-0.1,2.6,0.9,3,3.2,3C125.1,141.6,131.6,141.7,138.1,141.7z M296.9,298c0-3.9-0.1-7.7,0-11.6
		c0.1-1.6-0.5-2.5-2-3c-4.4-1.5-8.7-3-13-4.6c-1.3-0.5-2.3-0.4-3.4,0.5c-2.7,2-5.4,3.9-8.2,5.8c-1.2,0.8-1.6,1.7-1.5,3.1
		c0.1,7.2,0.1,14.5,0,21.7c0,1.8,0.3,2.7,2.4,2.6c7.7-0.1,15.5-0.1,23.2,0c1.9,0,2.6-0.6,2.6-2.5C296.8,306,296.9,302,296.9,298z
		 M266.7,279.6c2-1.4,3.6-2.7,5.3-3.6c2.7-1.4,2.7-2.9,1.5-5.6c-5.8-12.5-11.4-25.1-16.9-37.8c-2.3-5.3-6.1-7.9-11.9-7.6
		c-2.9,0.1-5.7,0-8.6,0c-7.8,0-7.7,0-7.2,7.9c0.1,1.7,0.7,2.1,2.2,2c3.1-0.1,6.3,0.2,9.4-0.1c4.5-0.4,7.1,1.5,8.8,5.6
		C254.8,253.4,260.7,266.3,266.7,279.6z"/>
	<path fill="#003184" d="M47.9,268.6c-6.8-8.2-13.4-16.4-20.1-24.4c-1-1.2-1.2-2.3-1.2-3.7c0-7.2,0.1-14.5,0-21.7
		c-0.1-2.5,0.7-3.1,3.2-3.1c15.9,0.1,31.7,0.1,47.6,0.1c47,0,94,0,141-0.1c3.4,0,4.1,0.9,4,4.1c-0.2,8.2-0.1,16.5-0.1,25
		c-3.5-1.1-6.7-2.4-10-3.1c-24.5-5-47,13-47.3,38.1c0,2.6-0.5,3.3-3.2,3.2c-15.1-0.1-30.2-0.1-45.4,0c-1.8,0-2.7-0.1-3.1-2.4
		c-2.7-15.9-13.2-27.1-27.6-29.8c-14.6-2.8-27.8,3.3-36.7,16.8C48.7,267.8,48.4,268.1,47.9,268.6z"/>
	<path fill="#003184" d="M98.7,209c-19.5,0-39-0.1-58.4,0.1c-2.6,0-3.3-0.7-3.3-3.3c0.1-13.2,0-26.5,0.1-39.7
		c0.1-10.3,7.4-17.7,17.7-17.7c34.2-0.1,68.4,0,102.6-0.1c2.6,0,3.1,0.8,3,3.2c-0.1,18.1-0.1,36.2,0,54.3c0,2.6-0.6,3.4-3.3,3.3
		C137.6,209,118.2,209,98.7,209z M73,163.7c-6.4,0-12.7,0.2-19.1-0.1c-3.2-0.1-2.5,1.8-2.6,3.6c-0.1,1.9-0.2,3.2,2.6,3.2
		c12.5-0.2,25-0.2,37.5,0c2.7,0,2.8-1.1,2.6-3.1c-0.1-1.8,0.6-3.7-2.6-3.6C85.2,163.9,79.1,163.7,73,163.7z M73,184.2
		c-6.4,0-12.7,0.1-19.1-0.1c-2.7-0.1-2.8,1.1-2.7,3.1c0.1,1.8-0.6,3.6,2.6,3.5c12.5-0.2,24.9-0.2,37.4,0c3.1,0,2.6-1.6,2.7-3.5
		c0.1-2,0-3.2-2.7-3.1C85.2,184.4,79.1,184.2,73,184.2z"/>
	<path fill="#003184" d="M208.8,133.1c12.5,0,25,0.1,37.5-0.1c3.2,0,3.4,0.8,2.4,3.5c-8.2,23.1-16.2,46.3-24.2,69.5
		c-0.8,2.2-1.7,3.1-4.2,3.1c-16.7-0.1-33.5-0.1-50.2,0c-2.7,0-3.3-0.8-3.3-3.4c0.1-19.1-0.1-38.2,0.2-57.4c0.1-4.2,0.7-8.4,0.4-12.7
		c-0.2-2.7,1.3-2.6,3.2-2.6C183.3,133.1,196,133.1,208.8,133.1z"/>
	<path fill="#003184" d="M236.6,279.7c0,18.2-14.8,32.9-32.8,32.8c-17.7-0.2-32.3-14.9-32.4-32.6c-0.1-18.1,14.7-32.7,32.9-32.6
		C222.1,247.3,236.6,261.8,236.6,279.7z M220.1,279.8c0-9-7.1-16.1-16.2-16.1c-8.8,0-16,7.1-16.1,15.9c-0.1,8.8,7.3,16.3,16.1,16.4
		C212.8,296.1,220.1,288.7,220.1,279.8z"/>
	<path fill="#003184" d="M-15.9,162.4c0.2-1.7,1.2-2.5,1.9-3.5c5.9-8.5,11.9-17,17.6-25.6c2.7-4.1,6.5-5.6,11-5.6
		c30.2,0,60.5,0,90.7-0.1c2.9,0,4,0.7,3.7,3.7c-0.3,3.3,1.1,7.8-0.6,9.7c-2,2.2-6.6,0.7-10,0.7c-26.6,0.1-53.2,0.1-79.8,0
		c-3.7,0-6.1,1.2-8,4.3c-2.9,4.8-6.3,9.3-9.3,14.1c-1.2,1.8-2.5,2.5-4.6,2.4C-7.4,162.3-11.5,162.4-15.9,162.4z"/>
	<path fill="#003184" d="M51.1,284.5c-0.1-15.3,12.4-28,27.8-28c15.4,0,27.9,12.4,28,27.8c0.1,15.5-12.6,28.3-28,28.2
		C63.5,312.3,51.2,299.9,51.1,284.5z M93.4,284.4c0-8-6.6-14.5-14.5-14.4c-8,0.1-14.3,6.6-14.2,14.7c0.1,7.8,6.5,14.2,14.3,14.3
		C86.8,299,93.4,292.4,93.4,284.4z"/>
	<path fill="#003184" d="M215.1,126.5c-14.9,0-29.7,0-44.6,0c-2.3,0-3.4-0.4-3.2-3c0.3-3.6-1.1-8.3,0.7-10.5
		c1.9-2.2,6.8-0.6,10.4-0.6c26.7-0.1,53.4,0,80.1-0.1c3.2,0,4.1,0.9,3.8,3.9c-0.3,2.3-0.2,4.8,0,7.1c0.3,2.8-0.9,3.2-3.4,3.2
		C244.3,126.5,229.7,126.5,215.1,126.5z"/>
	<path fill="#003184" d="M138.1,141.7c-6.5,0-13-0.1-19.5,0c-2.3,0-3.3-0.3-3.2-3c0.2-7.9,0.2-15.7,0-23.6c-0.1-2.5,0.8-2.8,3-2.8
		c8.2,0.1,16.5,0,24.7,0.1c10.3,0.1,17.5,7.5,17.6,17.8c0,3-0.1,6,0.1,9c0.1,2-0.6,2.5-2.5,2.5C151.6,141.6,144.9,141.7,138.1,141.7
		z"/>
	<path fill="#003184" d="M296.9,298c0,4-0.1,8,0,12c0.1,2-0.6,2.6-2.6,2.5c-7.7-0.1-15.5-0.1-23.2,0c-2.1,0-2.5-0.8-2.4-2.6
		c0.1-7.2,0.1-14.5,0-21.7c0-1.4,0.4-2.3,1.5-3.1c2.8-1.9,5.6-3.8,8.2-5.8c1.1-0.8,2.1-0.9,3.4-0.5c4.3,1.6,8.6,3.1,13,4.6
		c1.5,0.5,2.1,1.3,2,3C296.8,290.3,296.9,294.2,296.9,298z"/>
	<path fill="#003184" d="M266.7,279.6c-5.9-13.3-11.8-26.2-17.4-39.2c-1.8-4.2-4.3-6-8.8-5.6c-3.1,0.3-6.2,0-9.4,0.1
		c-1.5,0-2.1-0.3-2.2-2c-0.5-7.9-0.6-7.9,7.2-7.9c2.9,0,5.7,0.1,8.6,0c5.8-0.2,9.6,2.4,11.9,7.6c5.5,12.6,11.1,25.3,16.9,37.8
		c1.2,2.7,1.2,4.2-1.5,5.6C270.2,276.9,268.7,278.2,266.7,279.6z"/>
	<path fill="#FDFDFD" d="M73,163.7c6.1,0,12.2,0.2,18.4-0.1c3.2-0.1,2.5,1.8,2.6,3.6c0.1,2,0,3.2-2.6,3.1c-12.5-0.2-25-0.2-37.5,0
		c-2.7,0-2.7-1.3-2.6-3.2c0.1-1.8-0.6-3.7,2.6-3.6C60.2,163.9,66.6,163.7,73,163.7z"/>
	<path fill="#FDFDFD" d="M73,184.2c6.1,0,12.2,0.1,18.3-0.1c2.7-0.1,2.7,1.2,2.7,3.1c-0.1,1.9,0.4,3.6-2.7,3.5
		c-12.5-0.2-24.9-0.2-37.4,0c-3.2,0.1-2.5-1.8-2.6-3.5c-0.1-2,0-3.2,2.7-3.1C60.3,184.4,66.6,184.2,73,184.2z"/>
	<path fill="#FDFDFD" d="M220.1,279.8c0,8.9-7.3,16.3-16.2,16.2c-8.8-0.1-16.2-7.6-16.1-16.4c0.1-8.7,7.3-15.8,16.1-15.9
		C212.9,263.7,220.1,270.8,220.1,279.8z M213.5,279.7c0-5.3-4.3-9.5-9.5-9.5c-5.2,0-9.5,4.4-9.5,9.6c0,5.2,4.4,9.5,9.6,9.5
		C209.2,289.3,213.5,284.9,213.5,279.7z"/>
	<path fill="#FDFDFD" d="M93.4,284.4c0,8-6.5,14.6-14.4,14.6c-7.8,0-14.2-6.5-14.3-14.3c-0.1-8.1,6.3-14.6,14.2-14.7
		C86.8,269.9,93.3,276.4,93.4,284.4z M86.8,284.5c0-4.4-3.4-7.8-7.8-7.9c-4.4,0-7.8,3.4-7.9,7.8c0,4.3,3.5,7.9,7.8,7.9
		C83.2,292.4,86.8,288.8,86.8,284.5z"/>
	<path fill="#003184" d="M213.5,279.7c0,5.2-4.3,9.6-9.4,9.6c-5.1,0-9.5-4.4-9.6-9.5c0-5.2,4.3-9.6,9.5-9.6
		C209.2,270.2,213.5,274.5,213.5,279.7z"/>
	<path fill="#003184" d="M86.8,284.5c0,4.3-3.6,7.9-7.9,7.8c-4.3,0-7.8-3.6-7.8-7.9c0-4.4,3.5-7.8,7.9-7.8
		C83.4,276.7,86.8,280.1,86.8,284.5z"/>
</g>
</svg>
