<svg id="visual" viewBox="0 0 1920 1080" width="1920" height="1080" xmlns="http://www.w3.org/2000/svg" xmlns:xlink="http://www.w3.org/1999/xlink" version="1.1"><rect x="0" y="0" width="1920" height="1080" fill="#ffffff"></rect><defs><linearGradient id="grad1_0" x1="43.8%" y1="0%" x2="100%" y2="100%"><stop offset="14.444444444444446%" stop-color="#1a192c" stop-opacity="1"></stop><stop offset="85.55555555555554%" stop-color="#1a192c" stop-opacity="1"></stop></linearGradient></defs><defs><linearGradient id="grad1_1" x1="43.8%" y1="0%" x2="100%" y2="100%"><stop offset="14.444444444444446%" stop-color="#1a192c" stop-opacity="1"></stop><stop offset="85.55555555555554%" stop-color="#424051" stop-opacity="1"></stop></linearGradient></defs><defs><linearGradient id="grad1_2" x1="43.8%" y1="0%" x2="100%" y2="100%"><stop offset="14.444444444444446%" stop-color="#6d6b79" stop-opacity="1"></stop><stop offset="85.55555555555554%" stop-color="#424051" stop-opacity="1"></stop></linearGradient></defs><defs><linearGradient id="grad1_3" x1="43.8%" y1="0%" x2="100%" y2="100%"><stop offset="14.444444444444446%" stop-color="#6d6b79" stop-opacity="1"></stop><stop offset="85.55555555555554%" stop-color="#9b9aa4" stop-opacity="1"></stop></linearGradient></defs><defs><linearGradient id="grad1_4" x1="43.8%" y1="0%" x2="100%" y2="100%"><stop offset="14.444444444444446%" stop-color="#cccbd0" stop-opacity="1"></stop><stop offset="85.55555555555554%" stop-color="#9b9aa4" stop-opacity="1"></stop></linearGradient></defs><defs><linearGradient id="grad1_5" x1="43.8%" y1="0%" x2="100%" y2="100%"><stop offset="14.444444444444446%" stop-color="#cccbd0" stop-opacity="1"></stop><stop offset="85.55555555555554%" stop-color="#ffffff" stop-opacity="1"></stop></linearGradient></defs><defs><linearGradient id="grad2_0" x1="0%" y1="0%" x2="56.3%" y2="100%"><stop offset="14.444444444444446%" stop-color="#1a192c" stop-opacity="1"></stop><stop offset="85.55555555555554%" stop-color="#1a192c" stop-opacity="1"></stop></linearGradient></defs><defs><linearGradient id="grad2_1" x1="0%" y1="0%" x2="56.3%" y2="100%"><stop offset="14.444444444444446%" stop-color="#424051" stop-opacity="1"></stop><stop offset="85.55555555555554%" stop-color="#1a192c" stop-opacity="1"></stop></linearGradient></defs><defs><linearGradient id="grad2_2" x1="0%" y1="0%" x2="56.3%" y2="100%"><stop offset="14.444444444444446%" stop-color="#424051" stop-opacity="1"></stop><stop offset="85.55555555555554%" stop-color="#6d6b79" stop-opacity="1"></stop></linearGradient></defs><defs><linearGradient id="grad2_3" x1="0%" y1="0%" x2="56.3%" y2="100%"><stop offset="14.444444444444446%" stop-color="#9b9aa4" stop-opacity="1"></stop><stop offset="85.55555555555554%" stop-color="#6d6b79" stop-opacity="1"></stop></linearGradient></defs><defs><linearGradient id="grad2_4" x1="0%" y1="0%" x2="56.3%" y2="100%"><stop offset="14.444444444444446%" stop-color="#9b9aa4" stop-opacity="1"></stop><stop offset="85.55555555555554%" stop-color="#cccbd0" stop-opacity="1"></stop></linearGradient></defs><defs><linearGradient id="grad2_5" x1="0%" y1="0%" x2="56.3%" y2="100%"><stop offset="14.444444444444446%" stop-color="#ffffff" stop-opacity="1"></stop><stop offset="85.55555555555554%" stop-color="#cccbd0" stop-opacity="1"></stop></linearGradient></defs><g transform="translate(1920, 0)"><path d="M0 594C-64.5 591.5 -129.1 589.1 -183.6 564.9C-238 540.8 -282.4 494.9 -332.7 457.9C-383 420.9 -439.2 392.7 -478.9 348C-518.7 303.3 -541.8 242.1 -558.3 181.4C-574.7 120.7 -584.3 60.3 -594 0L0 0Z" fill="#e5e5e8"></path><path d="M0 495C-53.8 492.9 -107.6 490.9 -153 470.8C-198.3 450.6 -235.3 412.4 -277.2 381.6C-319.2 350.7 -366 327.2 -399.1 290C-432.2 252.7 -451.5 201.8 -465.2 151.2C-478.9 100.5 -487 50.3 -495 0L0 0Z" fill="#b3b2ba"></path><path d="M0 396C-43 394.4 -86.1 392.7 -122.4 376.6C-158.7 360.5 -188.3 330 -221.8 305.3C-255.3 280.6 -292.8 261.8 -319.3 232C-345.8 202.2 -361.2 161.4 -372.2 120.9C-383.1 80.4 -389.6 40.2 -396 0L0 0Z" fill="#84828e"></path><path d="M0 297C-32.3 295.8 -64.5 294.5 -91.8 282.5C-119 270.4 -141.2 247.5 -166.3 229C-191.5 210.4 -219.6 196.3 -239.5 174C-259.3 151.6 -270.9 121.1 -279.1 90.7C-287.3 60.3 -292.2 30.2 -297 0L0 0Z" fill="#575565"></path><path d="M0 198C-21.5 197.2 -43 196.4 -61.2 188.3C-79.3 180.3 -94.1 165 -110.9 152.6C-127.7 140.3 -146.4 130.9 -159.6 116C-172.9 101.1 -180.6 80.7 -186.1 60.5C-191.6 40.2 -194.8 20.1 -198 0L0 0Z" fill="#2d2c3e"></path><path d="M0 99C-10.8 98.6 -21.5 98.2 -30.6 94.2C-39.7 90.1 -47.1 82.5 -55.4 76.3C-63.8 70.1 -73.2 65.4 -79.8 58C-86.4 50.5 -90.3 40.4 -93 30.2C-95.8 20.1 -97.4 10.1 -99 0L0 0Z" fill="#1a192c"></path></g><g transform="translate(0, 1080)"><path d="M0 -594C63.7 -590.5 127.4 -587 183.6 -564.9C239.7 -542.9 288.2 -502.3 337.4 -464.4C386.6 -426.4 436.4 -391.1 474.1 -344.4C511.8 -297.8 537.4 -239.8 555.4 -180.5C573.4 -121.2 583.7 -60.6 594 0L0 0Z" fill="#e5e5e8"></path><path d="M0 -495C53.1 -492.1 106.2 -489.1 153 -470.8C199.7 -452.4 240.2 -418.6 281.2 -387C322.1 -355.4 363.6 -325.9 395.1 -287C426.5 -248.1 447.9 -199.8 462.8 -150.4C477.8 -101 486.4 -50.5 495 0L0 0Z" fill="#b3b2ba"></path><path d="M0 -396C42.5 -393.7 85 -391.3 122.4 -376.6C159.8 -361.9 192.1 -334.9 224.9 -309.6C257.7 -284.3 290.9 -260.7 316.1 -229.6C341.2 -198.5 358.3 -159.8 370.3 -120.3C382.3 -80.8 389.1 -40.4 396 0L0 0Z" fill="#84828e"></path><path d="M0 -297C31.9 -295.2 63.7 -293.5 91.8 -282.5C119.8 -271.4 144.1 -251.2 168.7 -232.2C193.3 -213.2 218.2 -195.6 237 -172.2C255.9 -148.9 268.7 -119.9 277.7 -90.2C286.7 -60.6 291.8 -30.3 297 0L0 0Z" fill="#575565"></path><path d="M0 -198C21.2 -196.8 42.5 -195.7 61.2 -188.3C79.9 -181 96.1 -167.4 112.5 -154.8C128.9 -142.1 145.5 -130.4 158 -114.8C170.6 -99.3 179.1 -79.9 185.1 -60.2C191.1 -40.4 194.6 -20.2 198 0L0 0Z" fill="#2d2c3e"></path><path d="M0 -99C10.6 -98.4 21.2 -97.8 30.6 -94.2C39.9 -90.5 48 -83.7 56.2 -77.4C64.4 -71.1 72.7 -65.2 79 -57.4C85.3 -49.6 89.6 -40 92.6 -30.1C95.6 -20.2 97.3 -10.1 99 0L0 0Z" fill="#1a192c"></path></g></svg>