<svg id="visual" viewBox="0 0 675 900" width="675" height="900" xmlns="http://www.w3.org/2000/svg" xmlns:xlink="http://www.w3.org/1999/xlink" version="1.1"><rect x="0" y="0" width="675" height="900" fill="#ffffff"></rect><defs><linearGradient id="grad1_0" x1="0%" y1="0%" x2="100%" y2="100%"><stop offset="30%" stop-color="#1a192c" stop-opacity="1"></stop><stop offset="70%" stop-color="#1a192c" stop-opacity="1"></stop></linearGradient></defs><defs><linearGradient id="grad1_1" x1="0%" y1="0%" x2="100%" y2="100%"><stop offset="30%" stop-color="#1a192c" stop-opacity="1"></stop><stop offset="70%" stop-color="#424051" stop-opacity="1"></stop></linearGradient></defs><defs><linearGradient id="grad1_2" x1="0%" y1="0%" x2="100%" y2="100%"><stop offset="30%" stop-color="#6d6b79" stop-opacity="1"></stop><stop offset="70%" stop-color="#424051" stop-opacity="1"></stop></linearGradient></defs><defs><linearGradient id="grad1_3" x1="0%" y1="0%" x2="100%" y2="100%"><stop offset="30%" stop-color="#6d6b79" stop-opacity="1"></stop><stop offset="70%" stop-color="#9b9aa4" stop-opacity="1"></stop></linearGradient></defs><defs><linearGradient id="grad1_4" x1="0%" y1="0%" x2="100%" y2="100%"><stop offset="30%" stop-color="#cccbd0" stop-opacity="1"></stop><stop offset="70%" stop-color="#9b9aa4" stop-opacity="1"></stop></linearGradient></defs><defs><linearGradient id="grad1_5" x1="0%" y1="0%" x2="100%" y2="100%"><stop offset="30%" stop-color="#cccbd0" stop-opacity="1"></stop><stop offset="70%" stop-color="#ffffff" stop-opacity="1"></stop></linearGradient></defs><defs><linearGradient id="grad2_0" x1="0%" y1="0%" x2="100%" y2="100%"><stop offset="30%" stop-color="#1a192c" stop-opacity="1"></stop><stop offset="70%" stop-color="#1a192c" stop-opacity="1"></stop></linearGradient></defs><defs><linearGradient id="grad2_1" x1="0%" y1="0%" x2="100%" y2="100%"><stop offset="30%" stop-color="#424051" stop-opacity="1"></stop><stop offset="70%" stop-color="#1a192c" stop-opacity="1"></stop></linearGradient></defs><defs><linearGradient id="grad2_2" x1="0%" y1="0%" x2="100%" y2="100%"><stop offset="30%" stop-color="#424051" stop-opacity="1"></stop><stop offset="70%" stop-color="#6d6b79" stop-opacity="1"></stop></linearGradient></defs><defs><linearGradient id="grad2_3" x1="0%" y1="0%" x2="100%" y2="100%"><stop offset="30%" stop-color="#9b9aa4" stop-opacity="1"></stop><stop offset="70%" stop-color="#6d6b79" stop-opacity="1"></stop></linearGradient></defs><defs><linearGradient id="grad2_4" x1="0%" y1="0%" x2="100%" y2="100%"><stop offset="30%" stop-color="#9b9aa4" stop-opacity="1"></stop><stop offset="70%" stop-color="#cccbd0" stop-opacity="1"></stop></linearGradient></defs><defs><linearGradient id="grad2_5" x1="0%" y1="0%" x2="100%" y2="100%"><stop offset="30%" stop-color="#ffffff" stop-opacity="1"></stop><stop offset="70%" stop-color="#cccbd0" stop-opacity="1"></stop></linearGradient></defs><g transform="translate(675, 0)"><path d="M0 309.4C-31.1 301.6 -62.1 293.9 -92.4 284.4C-122.7 274.8 -152.1 263.5 -179.3 246.8C-206.5 230 -231.4 208 -250.3 181.8C-269.2 155.7 -282.2 125.5 -291 94.6C-299.9 63.6 -304.6 31.8 -309.4 0L0 0Z" fill="#e5e5e8"></path><path d="M0 257.8C-25.9 251.4 -51.8 244.9 -77 237C-102.2 229 -126.7 219.6 -149.4 205.6C-172 191.7 -192.8 173.3 -208.6 151.5C-224.3 129.8 -235.1 104.6 -242.5 78.8C-249.9 53 -253.9 26.5 -257.8 0L0 0Z" fill="#b3b2ba"></path><path d="M0 206.3C-20.7 201.1 -41.4 195.9 -61.6 189.6C-81.8 183.2 -101.4 175.6 -119.5 164.5C-137.6 153.4 -154.2 138.6 -166.9 121.2C-179.5 103.8 -188.1 83.7 -194 63C-199.9 42.4 -203.1 21.2 -206.2 0L0 0Z" fill="#84828e"></path><path d="M0 154.7C-15.5 150.8 -31.1 147 -46.2 142.2C-61.3 137.4 -76 131.7 -89.6 123.4C-103.2 115 -115.7 104 -125.1 90.9C-134.6 77.9 -141.1 62.8 -145.5 47.3C-149.9 31.8 -152.3 15.9 -154.7 0L0 0Z" fill="#575565"></path><path d="M0 103.1C-10.4 100.5 -20.7 98 -30.8 94.8C-40.9 91.6 -50.7 87.8 -59.8 82.3C-68.8 76.7 -77.1 69.3 -83.4 60.6C-89.7 51.9 -94.1 41.8 -97 31.5C-100 21.2 -101.5 10.6 -103.1 0L0 0Z" fill="#2d2c3e"></path><path d="M0 51.6C-5.2 50.3 -10.4 49 -15.4 47.4C-20.4 45.8 -25.3 43.9 -29.9 41.1C-34.4 38.3 -38.6 34.7 -41.7 30.3C-44.9 26 -47 20.9 -48.5 15.8C-50 10.6 -50.8 5.3 -51.6 0L0 0Z" fill="#1a192c"></path></g><g transform="translate(0, 900)"><path d="M0 -309.4C29.7 -298.1 59.4 -286.7 90.5 -278.7C121.7 -270.6 154.2 -265.7 181.8 -250.3C209.5 -234.9 232.2 -208.9 249.2 -181C266.1 -153.2 277.2 -123.5 286.3 -93C295.3 -62.5 302.4 -31.3 309.4 0L0 0Z" fill="#e5e5e8"></path><path d="M0 -257.8C24.8 -248.4 49.5 -239 75.5 -232.2C101.4 -225.5 128.5 -221.4 151.5 -208.6C174.6 -195.7 193.5 -174.1 207.6 -150.9C221.8 -127.7 231 -102.9 238.6 -77.5C246.1 -52.1 252 -26.1 257.8 0L0 0Z" fill="#b3b2ba"></path><path d="M0 -206.2C19.8 -198.7 39.6 -191.2 60.4 -185.8C81.1 -180.4 102.8 -177.1 121.2 -166.9C139.7 -156.6 154.8 -139.3 166.1 -120.7C177.4 -102.1 184.8 -82.3 190.8 -62C196.9 -41.7 201.6 -20.8 206.3 0L0 0Z" fill="#84828e"></path><path d="M0 -154.7C14.9 -149 29.7 -143.4 45.3 -139.3C60.8 -135.3 77.1 -132.9 90.9 -125.1C104.7 -117.4 116.1 -104.4 124.6 -90.5C133.1 -76.6 138.6 -61.7 143.1 -46.5C147.7 -31.3 151.2 -15.6 154.7 0L0 0Z" fill="#575565"></path><path d="M0 -103.1C9.9 -99.4 19.8 -95.6 30.2 -92.9C40.6 -90.2 51.4 -88.6 60.6 -83.4C69.8 -78.3 77.4 -69.6 83.1 -60.3C88.7 -51.1 92.4 -41.2 95.4 -31C98.4 -20.8 100.8 -10.4 103.1 0L0 0Z" fill="#2d2c3e"></path><path d="M0 -51.6C5 -49.7 9.9 -47.8 15.1 -46.4C20.3 -45.1 25.7 -44.3 30.3 -41.7C34.9 -39.1 38.7 -34.8 41.5 -30.2C44.4 -25.5 46.2 -20.6 47.7 -15.5C49.2 -10.4 50.4 -5.2 51.6 0L0 0Z" fill="#1a192c"></path></g></svg>