<?xml version="1.0" encoding="iso-8859-1"?>
<!-- Uploaded to: SVG Repo, www.svgrepo.com, Generator: SVG Repo Mixer Tools -->
<svg fill="#000000" height="800px" width="800px" version="1.1" id="Layer_1" xmlns="http://www.w3.org/2000/svg" xmlns:xlink="http://www.w3.org/1999/xlink" 
	 viewBox="0 0 512 512" xml:space="preserve">
<g>
	<g>
		<path d="M499.677,426.489c4.428,0,8.017-3.589,8.017-8.017V84.977c0-2.1-0.862-4.183-2.347-5.668l-76.96-76.96
			C426.9,0.863,424.817,0,422.716,0H106.324C92.473,0,81.205,11.268,81.205,25.119v9.086H12.261c-6.987,0-10.616,8.738-5.668,13.685
			l62.74,62.741l-62.74,62.741c-4.947,4.947-1.32,13.685,5.668,13.685h68.944v299.825c0,13.851,11.268,25.119,25.119,25.119h376.251
			c13.851,0,25.119-11.268,25.119-25.119v-34.205c0-4.427-3.588-8.017-8.017-8.017c-4.428,0-8.017,3.589-8.017,8.017v34.205
			c0,5.01-4.076,9.086-9.086,9.086H106.324c-5.01,0-9.086-4.076-9.086-9.086V187.056h51.841c4.427,0,8.017-3.589,8.017-8.017
			s-3.589-8.017-8.017-8.017H31.615l54.724-54.724c3.131-3.131,3.131-8.207,0-11.337L31.615,50.238h348.88v120.785H183.284
			c-4.427,0-8.017,3.589-8.017,8.017s3.589,8.017,8.017,8.017h205.228c4.428,0,8.017-3.589,8.017-8.017V42.221
			c0-4.427-3.588-8.017-8.017-8.017H97.238v-9.086c0-5.01,4.076-9.086,9.086-9.086H414.7v51.841
			c0,13.851,11.268,25.119,25.119,25.119h51.841v325.478C491.66,422.9,495.248,426.489,499.677,426.489z M439.819,76.96
			c-5.01,0-9.086-4.076-9.086-9.086V27.37l49.589,49.59H439.819z"/>
	</g>
</g>
<g>
	<g>
		<path d="M208.938,76.96h-34.205c-4.427,0-8.017,3.589-8.017,8.017v51.307c0,4.427,3.589,8.017,8.017,8.017
			s8.017-3.589,8.017-8.017v-17.655c0.177,0.012,0.355,0.018,0.534,0.018h25.653c4.427,0,8.017-3.589,8.017-8.017V84.977
			C216.954,80.55,213.365,76.96,208.938,76.96z M200.921,102.614h-17.637c-0.18,0-0.357,0.005-0.534,0.018v-9.638h18.171V102.614z"
			/>
	</g>
</g>
<g>
	<g>
		<path d="M251.693,76.96h-17.102c-4.427,0-8.017,3.589-8.017,8.017v51.307c0,4.427,3.589,8.017,8.017,8.017h34.205
			c4.428,0,8.017-3.589,8.017-8.017v-34.205C276.812,88.229,265.544,76.96,251.693,76.96z M260.779,128.267h-18.171V92.994h9.086
			c5.01,0,9.086,4.076,9.086,9.086V128.267z"/>
	</g>
</g>
<g>
	<g>
		<path d="M328.654,76.96h-34.205c-4.428,0-8.017,3.589-8.017,8.017v51.307c0,4.427,3.588,8.017,8.017,8.017
			c4.428,0,8.017-3.589,8.017-8.017v-17.637h17.637c4.428,0,8.017-3.589,8.017-8.017s-3.588-8.017-8.017-8.017h-17.637v-9.62h26.188
			c4.428,0,8.017-3.589,8.017-8.017S333.082,76.96,328.654,76.96z"/>
	</g>
</g>
<g>
	<g>
		<path d="M414.165,213.779H174.733c-9.136,0-16.568,7.432-16.568,16.568v222.33c0,9.136,7.432,16.568,16.568,16.568h239.432
			c9.136,0,16.568-7.432,16.568-16.568v-222.33C430.733,221.211,423.301,213.779,414.165,213.779z M414.7,452.676
			c0,0.295-0.24,0.534-0.534,0.534H174.733c-0.295,0-0.534-0.239-0.534-0.534v-222.33c0-0.295,0.239-0.534,0.534-0.534h239.432
			c0.294,0,0.534,0.239,0.534,0.534V452.676z"/>
	</g>
</g>
<g>
	<g>
		<path d="M388.512,316.393H303c-4.428,0-8.017,3.589-8.017,8.017v102.614c0,4.427,3.588,8.017,8.017,8.017h85.512
			c4.428,0,8.017-3.589,8.017-8.017V324.409C396.528,319.982,392.94,316.393,388.512,316.393z M380.495,419.006h-69.478v-86.58
			h69.478V419.006z"/>
	</g>
</g>
<g>
	<g>
		<path d="M397.063,247.983H303c-4.428,0-8.017,3.589-8.017,8.017s3.588,8.017,8.017,8.017h94.063c4.428,0,8.017-3.589,8.017-8.017
			S401.491,247.983,397.063,247.983z"/>
	</g>
</g>
<g>
	<g>
		<path d="M397.063,282.188H303c-4.428,0-8.017,3.589-8.017,8.017s3.588,8.017,8.017,8.017h94.063c4.428,0,8.017-3.589,8.017-8.017
			S401.491,282.188,397.063,282.188z"/>
	</g>
</g>
<g>
	<g>
		<path d="M277.347,247.983h-85.511c-4.427,0-8.017,3.589-8.017,8.017s3.589,8.017,8.017,8.017h85.511
			c4.428,0,8.017-3.589,8.017-8.017S281.775,247.983,277.347,247.983z"/>
	</g>
</g>
<g>
	<g>
		<path d="M277.347,282.188h-85.511c-4.427,0-8.017,3.589-8.017,8.017s3.589,8.017,8.017,8.017h85.511
			c4.428,0,8.017-3.589,8.017-8.017S281.775,282.188,277.347,282.188z"/>
	</g>
</g>
<g>
	<g>
		<path d="M277.347,316.393h-85.511c-4.427,0-8.017,3.589-8.017,8.017s3.589,8.017,8.017,8.017h85.511
			c4.428,0,8.017-3.589,8.017-8.017S281.775,316.393,277.347,316.393z"/>
	</g>
</g>
<g>
	<g>
		<path d="M277.347,350.597h-85.511c-4.427,0-8.017,3.589-8.017,8.017s3.589,8.017,8.017,8.017h85.511
			c4.428,0,8.017-3.589,8.017-8.017S281.775,350.597,277.347,350.597z"/>
	</g>
</g>
<g>
	<g>
		<path d="M277.347,384.802h-85.511c-4.427,0-8.017,3.589-8.017,8.017c0,4.427,3.589,8.017,8.017,8.017h85.511
			c4.428,0,8.017-3.589,8.017-8.017C285.363,388.391,281.775,384.802,277.347,384.802z"/>
	</g>
</g>
<g>
	<g>
		<path d="M277.347,419.006h-85.511c-4.427,0-8.017,3.589-8.017,8.017c0,4.427,3.589,8.017,8.017,8.017h85.511
			c4.428,0,8.017-3.589,8.017-8.017C285.363,422.596,281.775,419.006,277.347,419.006z"/>
	</g>
</g>
</svg>