<svg width="35" height="35" viewBox="0 0 35 35" fill="none" xmlns="http://www.w3.org/2000/svg">
<path d="M8.80373 18.7168C6.11597 18.7168 3.93668 20.8957 3.93668 23.5843C3.93668 26.272 6.11597 28.4509 8.80373 28.4509C11.4919 28.4509 13.6712 26.272 13.6712 23.5843C13.6713 20.8957 11.4919 18.7168 8.80373 18.7168ZM8.80373 25.6374C7.66971 25.6374 6.75028 24.7179 6.75028 23.5843C6.75028 22.4503 7.66971 21.5309 8.80373 21.5309C9.93822 21.5309 10.8572 22.4503 10.8572 23.5843C10.8572 24.7179 9.93822 25.6374 8.80373 25.6374Z" fill="#2ecc71"/>
<path d="M26.5539 18.7168C23.8657 18.7168 21.6868 20.8957 21.6868 23.5843C21.6868 26.272 23.8657 28.4509 26.5539 28.4509C29.242 28.4509 31.4209 26.272 31.4209 23.5843C31.4209 20.8957 29.242 18.7168 26.5539 18.7168ZM26.5539 25.6374C25.4199 25.6374 24.5004 24.7179 24.5004 23.5843C24.5004 22.4503 25.4199 21.5309 26.5539 21.5309C27.6879 21.5309 28.6078 22.4503 28.6078 23.5843C28.6079 24.7179 27.6879 25.6374 26.5539 25.6374Z" fill="#2ecc71"/>
<path d="M34.1774 14.5599L31.6581 11.4711C30.9645 10.6209 29.9256 10.1279 28.8282 10.1279H22.5465V15.4246H21.1142V14.9954V9.26865V8.83949H27.2701V6.54932H18.5374V8.83956V9.26872H0V15.4246L11.5851 17.6234C13.8279 18.6746 15.3888 20.9476 15.3888 23.5842C15.3888 23.6327 15.3824 23.6788 15.382 23.7269H19.976C19.9756 23.6789 19.9688 23.6327 19.9688 23.5842C19.9688 19.9531 22.9232 16.9987 26.5539 16.9987C29.8432 16.9987 32.569 19.4256 33.0538 22.5814H33.7827C34.4549 22.5814 34.9999 22.0364 34.9999 21.3642V16.8679C35 16.0267 34.7094 15.2113 34.1774 14.5599ZM5.04581 14.8211L3.8647 14.6115V10.9867H5.04581V14.8211ZM10.0922 15.7188L8.91105 15.5083V10.9867H10.0922V15.7188ZM15.138 16.621L13.9569 16.411V10.9867H15.138V16.621ZM25.2089 15.052V12.1886H28.9143C29.2389 12.1886 29.5422 12.3326 29.7473 12.5838L31.7605 15.052H25.2089Z" fill="#2ecc71"/>
</svg>
