<svg width="50" height="30" viewBox="0 0 50 30" fill="none" xmlns="http://www.w3.org/2000/svg">
<rect x="20" y="19" width="30" height="6" rx="1" fill="#2ecc71"/>
<rect x="24.8638" y="3.68555" width="21.4021" height="4.23447" transform="rotate(42.5549 24.8638 3.68555)" fill="#2ecc71"/>
<rect x="10" y="0.168945" width="11.2553" height="4.23447" transform="rotate(-0.452454 10 0.168945)" fill="#2ecc71"/>
<rect x="20.5969" width="11.2553" height="4.23447" transform="rotate(37.8274 20.5969 0)" fill="#2ecc71"/>
<rect x="29.4264" y="6.7002" width="18.8888" height="3.80747" transform="rotate(42.5549 29.4264 6.7002)" fill="#2ecc71"/>
<rect x="36" y="10" width="9" height="9" fill="#2ecc71"/>
<path d="M26.2 29.2001C23.8 29.2001 21.9 27.3001 21.9 24.9001C21.9 22.5001 23.8 20.6001 26.2 20.6001C28.6 20.6001 30.5 22.5001 30.5 24.9001C30.5 27.3001 28.6 29.2001 26.2 29.2001ZM26.2 21.9001C24.5 21.9001 23.2 23.3001 23.2 24.9001C23.2 26.5001 24.6 27.9001 26.2 27.9001C27.8 27.9001 29.2 26.5001 29.2 24.9001C29.2 23.3001 27.9 21.9001 26.2 21.9001Z" fill="#2ecc71"/>
<path d="M22.6 25.9002H20.1C19.8 25.9002 19.5 25.6002 19.5 25.3002V19.3002C19.5 19.0002 19.8 18.7002 20.1 18.7002H49.4C49.7 18.7002 50 19.0002 50 19.3002V25.3002C50 25.6002 49.7 25.9002 49.4 25.9002H46.8C46.5 25.9002 46.2 25.6002 46.2 25.3002C46.2 25.0002 46.5 24.7002 46.8 24.7002H48.8V19.9002H20.7V24.6002H22.6C22.9 24.6002 23 24.9002 23 25.2002C23 25.6002 22.9 25.9002 22.6 25.9002Z" fill="#2ecc71"/>
<path d="M39 25.9002H30.2C29.9 25.9002 29.6 25.6002 29.6 25.3002C29.6 25.0002 29.9 24.7002 30.2 24.7002H39C39.3 24.7002 39.6 25.0002 39.6 25.3002C39.6 25.6002 39.4 25.9002 39 25.9002Z" fill="#2ecc71"/>
<path d="M45.3 19.8999H35.4C35.1 19.8999 34.8 19.5999 34.8 19.2999V9.9999C34.8 9.6999 35.1 9.3999 35.4 9.3999H45.3C45.6 9.3999 45.9 9.6999 45.9 9.9999V19.2999C45.9 19.5999 45.6 19.8999 45.3 19.8999ZM36 18.5999H44.7V10.5999H36V18.5999Z" fill="#2ecc71"/>
<path d="M34.7 19.2C34.5 19.2 34.4 19.1 34.3 19L19.8 4.6H9.99999C9.69999 4.6 9.39999 4.3 9.39999 4V0.6C9.39999 0.3 9.69999 0 9.99999 0H21.1C21.2 0 21.4 -9.68575e-08 21.5 0.0999999L35.7 11.4C36 11.6 36 12 35.8 12.3C35.6 12.6 35.3 12.6 35 12.4L20.9 1.2H10.6V3.3H20.1C20.3 3.3 20.4 3.4 20.5 3.5L35.1 18.1C35.3 18.3 35.3 18.7 35.1 19C35 19.1 34.9 19.2 34.7 19.2Z" fill="#2ecc71"/>
<path d="M16 19.4H3.30001C3.00001 19.4 2.70001 19.1 2.70001 18.8V6.6C2.70001 6.3 3.00001 6 3.30001 6H16C16.3 6 16.6 6.3 16.6 6.6V18.7C16.6 19.1 16.3 19.4 16 19.4ZM3.90001 18.1H15.4V7.2H3.90001V18.1Z" fill="#2ecc71"/>
<path d="M18.7 16.6998C18.4 16.6998 18.1 16.3998 18.1 16.0998V4.5998H1.2V16.0998C1.2 16.3998 0.9 16.6998 0.6 16.6998C0.3 16.6998 0 16.3998 0 16.0998V3.9998C0 3.5998 0.3 3.2998 0.6 3.2998H18.6C18.9 3.2998 19.2 3.59981 19.2 3.89981V15.9998C19.3 16.3998 19 16.6998 18.7 16.6998Z" fill="#2ecc71"/>
<path d="M43 16.8001H37.7C37.4 16.8001 37.1 16.5001 37.1 16.2001V12.2001C37.1 11.9001 37.4 11.6001 37.7 11.6001H43C43.3 11.6001 43.6 11.9001 43.6 12.2001V16.2001C43.6 16.5001 43.3 16.8001 43 16.8001ZM38.3 15.6001H42.4V12.8001H38.3V15.6001Z" fill="#2ecc71"/>
<path d="M42.9 29.2001C40.5 29.2001 38.6 27.3001 38.6 24.9001C38.6 22.5001 40.5 20.6001 42.9 20.6001C45.3 20.6001 47.2 22.5001 47.2 24.9001C47.1 27.3001 45.2 29.2001 42.9 29.2001ZM42.9 21.9001C41.2 21.9001 39.9 23.3001 39.9 24.9001C39.9 26.5001 41.3 27.9001 42.9 27.9001C44.5 27.9001 45.9 26.5001 45.9 24.9001C45.9 23.3001 44.5 21.9001 42.9 21.9001Z" fill="#2ecc71"/>
<path d="M38 12C38 11.4477 38.4477 11 39 11H42C42.5523 11 43 11.4477 43 12V17C43 17.5523 42.5523 18 42 18H39C38.4477 18 38 17.5523 38 17V12Z" fill="white"/>
<rect x="3" y="7" width="13" height="12" fill="#2ecc71"/>
</svg>
