<svg width="50" height="36" viewBox="0 0 50 36" fill="none" xmlns="http://www.w3.org/2000/svg">
<g clip-path="url(#clip0_402_2)">
<path d="M26.1 36.0002H6.89999C4.69999 36.0002 2.89999 34.2002 2.89999 32.0002V31.7002C2.89999 29.5002 4.69999 27.7002 6.89999 27.7002H26.1C28.3 27.7002 30.1 29.5002 30.1 31.7002V32.0002C30.1 34.2002 28.3 36.0002 26.1 36.0002ZM6.89999 28.9002C5.39999 28.9002 4.09999 30.2002 4.09999 31.7002V32.0002C4.09999 33.5002 5.39999 34.8002 6.89999 34.8002H26.1C27.6 34.8002 28.9 33.5002 28.9 32.0002V31.7002C28.9 30.2002 27.6 28.9002 26.1 28.9002H6.89999Z" fill="#f1c40f"/>
<path d="M24.3 26.3002H13.3C13 26.3002 12.7 26.0002 12.7 25.7002V12.6002C12.7 11.5002 13.6 10.7002 14.6 10.7002H22.6C23.7 10.7002 24.6 11.4002 24.8 12.5002C25.5 16.3002 26.4 21.1002 26.4 22.0002V24.4002C26.3 25.4002 25.4 26.3002 24.3 26.3002ZM13.9 25.1002H24.3C24.8 25.1002 25.1 24.7002 25.1 24.3002V21.9002C25.1 21.3002 24.5 17.8002 23.5 12.6002C23.4 12.1002 23 11.8002 22.6 11.8002H14.6C14.2 11.8002 13.9 12.1002 13.9 12.5002V25.1002Z" fill="#f1c40f"/>
<path d="M22.6 20.3999H19.3C19 20.3999 18.7 20.0999 18.7 19.7999C18.7 19.4999 19 19.1999 19.3 19.1999H22.3C22.1 18.0999 21.7 15.8999 21.5 14.6999C21.4 14.3999 21.1 14.0999 20.8 14.0999H16.8C16.5 14.0999 16.2 14.3999 16.2 14.6999V16.6999C16.2 16.9999 15.9 17.2999 15.6 17.2999C15.3 17.2999 15 16.9999 15 16.6999V14.6999C15 13.6999 15.8 12.8999 16.8 12.8999H20.8C21.7 12.8999 22.5 13.5999 22.7 14.4999C23 15.7999 23.4 18.2999 23.5 19.2999C23.5 19.5999 23.4 19.8999 23.3 20.0999C23.2 20.1999 22.9 20.3999 22.6 20.3999Z" fill="#f1c40f"/>
<path d="M13.3 26.3H1.9C0.9 26.3 0 25.5 0 24.4V20.9C0 19.9 0.8 19 1.9 19H13.3C13.6 19 13.9 19.3 13.9 19.6V25.7C13.9 26.1 13.6 26.3 13.3 26.3ZM1.9 20.3C1.5 20.3 1.2 20.6 1.2 21V24.5C1.2 24.9 1.5 25.2 1.9 25.2H12.7V20.3H1.9Z" fill="#f1c40f"/>
<path d="M13.3 23.1003C13 23.1003 12.7 22.8003 12.7 22.5003V17.0003H6.49999C6.29999 17.0003 5.99999 17.3003 5.99999 17.6003V19.6003C5.99999 19.9003 5.69999 20.2003 5.39999 20.2003C5.09999 20.2003 4.79999 19.9003 4.79999 19.6003V17.6003C4.79999 16.6003 5.59999 15.8003 6.59999 15.8003H13.3C13.6 15.8003 13.9 16.1003 13.9 16.4003V22.5003C13.9 22.8003 13.6 23.1003 13.3 23.1003Z" fill="#f1c40f"/>
<path d="M7.1 16.6999C6.8 16.6999 6.5 16.3999 6.5 16.0999V13.9999C6.5 13.6999 6.8 13.3999 7.1 13.3999C7.4 13.3999 7.7 13.6999 7.7 13.9999V16.0999C7.7 16.3999 7.4 16.6999 7.1 16.6999Z" fill="#f1c40f"/>
<path d="M24.5 14.1001C24.3 14.1001 24.2 14.0001 24.1 13.9001C23.9 13.7001 23.8 13.3001 24.1 13.0001L33.2 3.30007C33.4 3.10007 33.6 2.80007 33.6 2.40007C33.6 2.10007 33.5 1.80007 33.3 1.50007C32.9 1.00007 32.1 1.00007 31.6 1.40007L20.3 11.6001C20 11.8001 19.7 11.8001 19.4 11.5001C19.2 11.2001 19.2 10.9001 19.5 10.6001L30.8 0.600072C31.8 -0.199928 33.2 -0.0999281 34.1 0.800072C34.6 1.30007 34.8 1.90007 34.8 2.60007C34.8 3.30007 34.5 3.90007 34 4.30007L25 13.9001C24.9 14.1001 24.7 14.1001 24.5 14.1001Z" fill="#f1c40f"/>
<path d="M40.7 18.3999C40.5 18.3999 40.3 18.3999 40.2 18.2999C39.6 18.1999 39.1 17.7999 38.8 17.2999L31.5 5.99985C31.3 5.69985 31.4 5.29985 31.7 5.19985C32 4.99985 32.4 5.09985 32.6 5.39985L39.8 16.5999C40 16.7999 40.2 16.9999 40.5 17.0999C40.8 17.1999 41.1 17.0999 41.3 16.9999C41.8 16.6999 42 15.9999 41.6 15.4999L33.6 3.09985C33.4 2.79985 33.5 2.39985 33.8 2.29985C34.1 2.09985 34.5 2.19985 34.6 2.49985L42.5 14.8999C43.2 15.9999 42.8 17.3999 41.8 18.0999C41.5 18.1999 41.1 18.3999 40.7 18.3999Z" fill="#f1c40f"/>
<path d="M48.8 28.6001H40.6C40.3 28.6001 40 28.3001 40 28.0001V18.0001C40 17.7001 40.3 17.4001 40.6 17.4001C40.9 17.4001 41.2 17.7001 41.2 18.0001V27.3001H48.4L43.8 25.6001C43.5 25.5001 43.4 25.3001 43.4 25.0001V20.6001C43.4 20.3001 43.7 20.0001 44 20.0001H46.8V18.0001H44.2C43.9 18.0001 43.6 17.7001 43.6 17.4001V12.9001C43.6 12.6001 43.9 12.3001 44.2 12.3001H48.7V10.8001H42.1C41.6 10.8001 41.2 11.2001 41.2 11.7001V12.7001C41.2 13.0001 40.9 13.3001 40.6 13.3001C40.3 13.3001 40 13.0001 40 12.7001V11.7001C40 10.5001 41 9.6001 42.1 9.6001H49.3C49.6 9.6001 49.9 9.9001 49.9 10.2001V12.9001C49.9 13.2001 49.6 13.5001 49.3 13.5001H44.8V16.8001H47.4C47.7 16.8001 48 17.1001 48 17.4001V20.6001C48 20.9001 47.7 21.2001 47.4 21.2001H44.6V24.6001L49.1 26.3001C49.7 26.5001 50 27.0001 49.9 27.6001C49.9 28.2001 49.4 28.6001 48.8 28.6001Z" fill="#f1c40f"/>
<rect x="13" y="11" width="8" height="15" rx="1" fill="#f1c40f"/>
<rect x="16" y="11" width="8" height="15" rx="1" fill="#f1c40f"/>
<rect x="15.9993" y="20" width="5.19895" height="15" rx="1" transform="rotate(89.4451 15.9993 20)" fill="#f1c40f"/>
<rect x="19.9993" y="16" width="5.19895" height="15" rx="1" transform="rotate(89.4451 19.9993 16)" fill="#f1c40f"/>
<rect x="21.9962" y="15.8022" width="4.7123" height="18.3461" rx="1" transform="rotate(-133.954 21.9962 15.8022)" fill="#f1c40f"/>
<rect x="3.98502" y="35.1753" width="6.66403" height="24.8738" rx="1" transform="rotate(-89.1304 3.98502 35.1753)" fill="#f1c40f"/>
<rect x="31.6099" y="4.48584" width="2.81739" height="15.9068" rx="1" transform="rotate(-31.8337 31.6099 4.48584)" fill="#f1c40f"/>
<rect x="41.1935" y="10.0898" width="3.00046" height="17.8136" rx="1" transform="rotate(0.622204 41.1935 10.0898)" fill="#f1c40f"/>
<rect x="41.1935" y="10.0898" width="3.00046" height="17.8136" rx="1" transform="rotate(0.622204 41.1935 10.0898)" fill="#f1c40f"/>
<path d="M46.4533 25.6249C47.0055 25.6195 47.4576 26.0629 47.4629 26.6152L47.4678 27.1201C47.4731 27.6724 47.0297 28.1244 46.4774 28.1297L43.0289 28.163C42.4766 28.1683 42.0246 27.725 42.0193 27.1727L42.0144 26.6677C42.0091 26.1155 42.4524 25.6635 43.0047 25.6581L46.4533 25.6249Z" fill="#f1c40f"/>
<path d="M47.4485 26.0096C48.0008 26.0043 48.4528 26.4477 48.4581 26.9999L48.463 27.5049C48.4683 28.0572 48.0249 28.5092 47.4727 28.5145L44.0241 28.5478C43.4718 28.5531 43.0198 28.1097 43.0145 27.5575L43.0096 27.0525C43.0043 26.5003 43.4476 26.0482 43.9999 26.0429L47.4485 26.0096Z" fill="#f1c40f"/>
<path d="M46.4402 17.1454C46.9924 17.1401 47.4444 17.5834 47.4498 18.1357L47.463 19.5048C47.4683 20.057 47.0249 20.5091 46.4727 20.5144L43.0241 20.5476C42.4718 20.553 42.0198 20.1096 42.0145 19.5573L42.0013 18.1882C41.9959 17.636 42.4393 17.184 42.9916 17.1786L46.4402 17.1454Z" fill="#f1c40f"/>
<path d="M3.1 22.4001C2.8 22.4001 2.5 22.0001 2.5 21.6001V18.8C2.5 18.4 2.8 18 3.1 18C3.4 18 3.7 18.4 3.7 18.8V21.6001C3.7 22.0001 3.4 22.4001 3.1 22.4001Z" fill="#f1c40f"/>
<path d="M7.19999 33.8C6.09999 33.8 5.29999 32.9 5.29999 31.9C5.29999 30.8 6.19999 30 7.19999 30C8.19999 30 9.09999 30.9 9.09999 31.9C9.09999 32.9 8.19999 33.8 7.19999 33.8ZM7.19999 31.1C6.79999 31.1 6.49999 31.4 6.49999 31.8C6.49999 32.2 6.79999 32.5 7.19999 32.5C7.59999 32.5 7.89999 32.2 7.89999 31.8C7.89999 31.4 7.59999 31.1 7.19999 31.1Z" fill="white"/>
<path d="M25.8 33.8C24.7 33.8 23.9 32.9 23.9 31.9C23.9 30.8 24.8 30 25.8 30C26.9 30 27.7 30.9 27.7 31.9C27.7 32.9 26.9 33.8 25.8 33.8ZM25.8 31.1C25.4 31.1 25.1 31.4 25.1 31.8C25.1 32.2 25.4 32.5 25.8 32.5C26.2 32.5 26.5 32.2 26.5 31.8C26.5 31.4 26.2 31.1 25.8 31.1Z" fill="white"/>
<path d="M22.2 32.5003H10.6C10.3 32.5003 10 32.2003 10 31.9003C10 31.6003 10.3 31.3003 10.6 31.3003H22.2C22.5 31.3003 22.8 31.6003 22.8 31.9003C22.8 32.2003 22.6 32.5003 22.2 32.5003Z" fill="white"/>
<path d="M48.4485 10.0096C49.0008 10.0043 49.4528 10.4477 49.4581 10.9999L49.4713 12.369C49.4766 12.9213 49.0333 13.3733 48.481 13.3786L45.0324 13.4119C44.4801 13.4172 44.0281 12.9739 44.0228 12.4216L44.0096 11.0525C44.0043 10.5002 44.4476 10.0482 44.9999 10.0429L48.4485 10.0096Z" fill="#f1c40f"/>
<rect x="21" y="19" width="5" height="7" rx="1" fill="#f1c40f"/>
<path d="M20 16C20 15.4477 20.4477 15 21 15H24C24.5523 15 25 15.4477 25 16V21C25 21.5523 24.5523 22 24 22H21C20.4477 22 20 21.5523 20 21V16Z" fill="#f1c40f"/>
<path d="M17 14C17 13.4477 17.4477 13 18 13H21C21.5523 13 22 13.4477 22 14V19C22 19.5523 21.5523 20 21 20H18C17.4477 20 17 19.5523 17 19V14Z" fill="white"/>
</g>
<defs>
<clipPath id="clip0_402_2">
<rect width="50" height="36" fill="white"/>
</clipPath>
</defs>
</svg>
