<svg
   width="512"
   height="512"
   viewBox="0 0 512 512"
   version="1.1"
   id="svg5"
   xmlns="http://www.w3.org/2000/svg"
   xmlns:svg="http://www.w3.org/2000/svg">
  <defs
     id="defs2" />
  <circle
    style="fill:#ffffff;stroke-width:0.593384"
    id="path3648"
    cx="256"
    cy="256"
    r="151.90639" />
  <g
     id="layer1">
    <path
       id="path111"
       style="fill:#2ecc71;stroke-width:1.97904;fill-opacity:1"
       d="M 256,2.0001701e-6 A 255.9997,255.9997 0 0 0 2.0001701e-6,256 255.9997,255.9997 0 0 0 256,512 255.9997,255.9997 0 0 0 512,256 255.9997,255.9997 0 0 0 256,2.0001701e-6 Z M 256,119.12523 A 136.87395,136.87395 0 0 1 392.87477,256 136.87395,136.87395 0 0 1 256,392.87477 136.87395,136.87395 0 0 1 119.12523,256 136.87395,136.87395 0 0 1 256,119.12523 Z" />
  </g>
</svg>
